<svg xmlns="http://www.w3.org/2000/svg" viewBox="0 0 64 64" role="img" aria-label="城北セレモニーサポートセンター">
  <rect width="64" height="64" rx="14" fill="#1b2a4a"/>
  <g fill="#c9a96a">
    <path d="M32 13 C 26.5 24, 26.5 33, 32 40 C 37.5 33, 37.5 24, 32 13 Z"/>
    <path d="M32 13 C 26.5 24, 26.5 33, 32 40 C 37.5 33, 37.5 24, 32 13 Z" transform="rotate(34 32 40)" opacity="0.95"/>
    <path d="M32 13 C 26.5 24, 26.5 33, 32 40 C 37.5 33, 37.5 24, 32 13 Z" transform="rotate(-34 32 40)" opacity="0.95"/>
    <path d="M32 13 C 26.5 24, 26.5 33, 32 40 C 37.5 33, 37.5 24, 32 13 Z" transform="rotate(66 32 40)" opacity="0.8"/>
    <path d="M32 13 C 26.5 24, 26.5 33, 32 40 C 37.5 33, 37.5 24, 32 13 Z" transform="rotate(-66 32 40)" opacity="0.8"/>
  </g>
  <rect x="17" y="47" width="30" height="2.6" rx="1.3" fill="#b08d4f"/>
</svg>
